<?xml version="1.0" standalone="no"?>
<!DOCTYPE svg PUBLIC "-//W3C//DTD SVG 20010904//EN"
 "http://www.w3.org/TR/2001/REC-SVG-20010904/DTD/svg10.dtd">
<svg version="1.0" xmlns="http://www.w3.org/2000/svg"
 width="512.000000pt" height="512.000000pt" viewBox="0 0 512.000000 512.000000"
 preserveAspectRatio="xMidYMid meet">
<metadata>
Created by potrace 1.16, written by Peter Selinger 2001-2019
</metadata>
<g transform="translate(0.000000,512.000000) scale(0.100000,-0.100000)"
fill="#000000" stroke="none">
<path d="M2330 4260 c-204 -28 -373 -80 -542 -167 -146 -74 -260 -157 -396
-288 -304 -292 -452 -583 -507 -1004 -33 -245 -9 -519 67 -761 39 -127 153
-353 236 -470 87 -123 301 -338 421 -423 174 -124 378 -214 584 -259 89 -20
131 -22 337 -22 206 0 248 2 337 22 374 82 684 263 973 570 175 186 278 352
349 567 71 213 85 301 86 535 0 179 -3 219 -24 315 -46 217 -132 424 -246 596
-236 354 -723 675 -1166 769 -117 25 -394 36 -509 20z m462 -39 c205 -36 400
-111 609 -236 121 -72 249 -163 249 -176 0 -20 -24 -16 -108 21 -108 46 -182
67 -295 81 -64 8 -94 17 -137 43 -85 52 -167 91 -260 124 -88 31 -245 62 -312
62 -52 0 -176 -26 -263 -55 -44 -14 -105 -25 -165 -28 -171 -10 -365 -83 -549
-206 -51 -35 -95 -61 -97 -59 -21 22 308 253 462 325 78 35 255 88 368 108
113 21 364 18 498 -4z m-617 -210 c11 -10 46 -35 79 -55 32 -21 94 -73 137
-116 62 -61 77 -82 72 -99 -8 -30 -27 -38 -118 -46 -123 -11 -240 -32 -353
-66 -56 -16 -108 -27 -115 -23 -6 4 -9 4 -5 -1 4 -4 -18 -35 -49 -69 -69 -75
-131 -168 -200 -305 -29 -57 -59 -111 -65 -119 -7 -8 -53 -44 -103 -81 -49
-37 -115 -91 -147 -119 l-56 -52 -31 25 c-16 14 -49 54 -72 88 -39 59 -41 65
-36 122 9 115 96 321 195 460 176 250 434 417 725 470 81 15 113 12 142 -14z
m182 -21 c51 -40 110 -107 131 -147 22 -40 12 -37 -25 8 -20 24 -68 74 -107
111 -78 75 -77 91 1 28z m645 -78 c7 -7 -12 1 -40 19 -29 17 -52 34 -52 36 0
7 81 -41 92 -55z m-56 -33 c-125 -14 -220 -39 -344 -88 -68 -27 -57 -8 13 24
107 47 227 73 340 72 l60 0 -69 -8z m485 -39 c133 -44 197 -81 265 -152 274
-284 435 -547 504 -823 9 -39 9 -39 4 10 -3 28 -8 61 -11 75 -3 14 -3 22 0 19
19 -17 59 -255 64 -379 5 -126 4 -137 -15 -160 -29 -35 -39 -20 -57 79 -32
184 -88 346 -155 451 -19 30 -35 77 -49 145 -26 127 -51 199 -102 294 -58 108
-67 111 -19 8 50 -109 88 -238 96 -327 l7 -67 -68 -71 c-75 -80 -151 -135
-170 -124 -7 4 -40 42 -74 84 -33 43 -99 110 -146 150 l-85 72 0 50 c0 77 -26
236 -51 307 -24 70 -88 202 -113 234 -9 11 2 -16 23 -60 89 -182 140 -456 93
-503 -10 -10 -52 -26 -93 -36 -41 -10 -128 -38 -193 -62 -66 -24 -127 -44
-137 -44 -10 0 -43 43 -89 118 -41 64 -132 204 -202 310 -154 231 -154 231
-58 279 95 47 223 75 372 81 l127 5 32 40 32 40 89 -7 c59 -4 121 -16 179 -36z
m-1991 -12 c-10 -18 -21 -49 -23 -69 -4 -40 -68 -126 -86 -115 -17 11 -66 -20
-106 -66 -64 -75 -59 -83 8 -14 36 36 72 66 82 66 12 0 15 -4 8 -12 -6 -7 -31
-39 -56 -70 -106 -132 -209 -311 -252 -439 -66 -194 -108 -494 -89 -644 8 -68
9 -65 15 80 8 170 29 266 84 380 32 67 65 101 73 76 2 -6 33 -50 69 -97 l64
-86 -12 -89 c-15 -110 -7 -287 17 -386 18 -72 18 -73 -4 -112 -12 -22 -37 -86
-56 -143 -39 -119 -46 -124 -124 -84 -62 31 -91 85 -124 226 -20 85 -22 122
-22 340 0 273 7 340 60 525 41 145 129 325 217 448 54 75 262 317 273 317 2 0
-5 -15 -16 -32z m2327 -110 c41 -40 102 -103 134 -139 l59 -67 -55 22 c-42 18
-77 46 -156 125 -84 84 -99 104 -89 116 7 8 17 15 22 15 6 0 44 -33 85 -72z
m-1324 -57 c30 -12 84 -81 206 -264 156 -234 211 -328 211 -362 0 -37 -10 -52
-118 -178 -46 -54 -113 -137 -149 -185 -93 -123 -102 -132 -139 -132 -48 0
-522 98 -560 116 -55 26 -222 252 -280 378 l-25 55 31 72 c32 76 114 218 163
284 84 111 118 132 288 175 162 42 324 59 372 41z m933 -866 c-19 -229 -20
-407 -2 -488 10 -50 22 -70 84 -143 40 -46 70 -84 67 -84 -14 0 -96 46 -160
91 -60 41 -76 48 -105 43 -27 -4 -60 5 -140 39 -139 58 -459 172 -465 165 -13
-13 133 -336 215 -475 17 -29 28 -53 25 -53 -12 0 -98 145 -150 252 -52 106
-128 308 -117 308 3 0 75 -21 161 -46 422 -126 423 -125 500 134 40 134 79
327 88 437 5 54 9 75 11 52 2 -21 -4 -125 -12 -232z m801 233 c-3 -8 -6 -5 -6
6 -1 11 2 17 5 13 3 -3 4 -12 1 -19z m10 -40 c-3 -8 -6 -5 -6 6 -1 11 2 17 5
13 3 -3 4 -12 1 -19z m-998 -31 c-207 -85 -336 -172 -500 -336 -78 -78 -132
-125 -143 -123 -9 2 -16 7 -16 10 1 13 370 445 393 459 6 4 0 -7 -13 -24 -14
-17 -50 -61 -79 -99 l-55 -69 50 36 c83 61 208 119 354 164 120 38 124 28 9
-18z m-1669 6 c0 -5 -43 -39 -95 -78 -53 -38 -110 -84 -128 -103 -32 -33 -32
-34 -36 -150 -5 -159 10 -240 52 -279 39 -36 123 -88 186 -113 25 -10 39 -19
30 -19 -40 -2 -232 82 -256 111 -22 26 -37 136 -37 258 1 180 7 196 107 273
118 92 178 126 177 100z m2493 -41 c29 -32 86 -167 112 -267 53 -205 53 -396
0 -580 -28 -97 -30 -112 -13 -117 10 -4 10 -11 0 -33 -28 -60 -121 -193 -173
-246 -55 -56 -176 -126 -201 -116 -8 2 -15 20 -16 38 -4 50 -77 261 -106 308
-33 51 -32 64 4 184 52 172 81 340 87 497 l6 146 46 32 c25 17 80 63 121 102
78 72 105 83 133 52z m-2233 -237 c13 -14 21 -25 18 -25 -2 0 -15 11 -28 25
-13 14 -21 25 -18 25 2 0 15 -11 28 -25z m-68 -134 c-82 -127 -87 -133 -51
-66 30 57 96 155 105 155 2 0 -22 -40 -54 -89z m98 49 c-6 -11 -13 -20 -16
-20 -2 0 0 9 6 20 6 11 13 20 16 20 2 0 0 -9 -6 -20z m370 -66 c135 -25 259
-52 276 -59 25 -10 36 -27 69 -106 85 -208 220 -444 326 -569 22 -26 39 -57
39 -69 0 -20 -99 -344 -133 -435 -13 -35 -45 -49 -156 -70 -106 -20 -193 -20
-262 0 -62 18 -150 61 -161 78 -4 6 -8 7 -8 3 0 -13 -119 72 -163 117 -164
167 -355 472 -393 628 l-17 67 51 103 c61 125 196 332 226 346 33 16 46 15
306 -34z m-856 -323 c3 -5 55 -30 115 -57 l109 -47 27 -76 c56 -160 177 -357
332 -542 60 -71 82 -104 73 -109 -25 -15 -164 -33 -168 -21 -2 6 -19 11 -37
11 -39 0 -185 50 -266 90 -90 46 -167 145 -259 335 -76 154 -78 173 -41 275
39 107 65 150 90 150 11 0 22 -4 25 -9z m2239 -323 c22 -30 35 -60 88 -203 22
-59 24 -133 6 -178 -15 -34 -101 -152 -149 -203 -21 -23 -28 -38 -24 -52 5
-16 -4 -28 -46 -58 -68 -48 -82 -62 -39 -38 18 10 58 40 88 66 30 27 56 48 58
48 2 0 28 9 57 21 65 25 65 25 -63 -66 -213 -153 -390 -232 -624 -279 l-30 -6
35 20 c29 18 31 20 10 16 -57 -10 -159 -18 -169 -12 -6 4 35 30 90 58 55 28
110 63 122 77 15 19 43 32 92 45 101 27 210 71 288 117 37 22 67 42 67 44 0 2
-52 -21 -116 -52 -64 -31 -129 -56 -144 -57 -16 -1 -26 -5 -22 -10 3 -5 -5 -7
-16 -4 -12 4 -20 3 -17 -1 2 -5 -28 -15 -68 -24 -69 -15 -74 -15 -113 4 -23
11 -60 37 -84 59 -40 37 -42 42 -36 78 5 37 137 439 150 460 3 5 42 15 86 21
100 15 300 69 400 109 41 17 80 31 87 31 7 1 23 -14 36 -31z m-2398 -136 c47
-87 102 -166 177 -253 32 -38 51 -69 55 -94 6 -35 5 -37 -14 -26 -25 13 -134
143 -191 226 -33 49 -152 261 -152 271 0 2 19 -8 41 -21 33 -18 50 -40 84
-103z m1756 111 c13 -16 12 -17 -3 -4 -17 13 -22 21 -14 21 2 0 10 -8 17 -17z
m1148 -65 c-44 -83 -185 -275 -195 -265 -11 10 25 67 79 127 32 35 72 86 89
112 33 50 47 64 27 26z m-2484 -405 c69 -32 125 -63 125 -70 0 -7 -2 -13 -5
-13 -3 0 -59 27 -125 60 -66 33 -124 60 -130 60 -15 0 -12 -47 4 -78 36 -70
330 -250 484 -297 27 -8 118 -95 99 -95 -26 0 -228 89 -304 134 -138 82 -340
245 -314 254 6 2 11 23 11 46 0 42 5 56 22 56 5 0 65 -26 133 -57z m493 -62
c32 -21 99 -61 150 -89 l93 -49 -63 -58 c-93 -84 -93 -84 -166 -74 -55 8 -71
15 -120 56 -64 55 -147 152 -157 184 -10 30 1 36 89 48 44 6 82 13 84 16 12
12 37 2 90 -34z m651 -133 c-98 -38 -359 -65 -359 -38 0 6 29 10 68 10 63 0
201 20 267 39 37 10 57 1 24 -11z m-571 -182 c26 -7 56 -17 67 -21 l20 -8 -20
16 c-27 22 -14 21 90 -9 76 -22 117 -27 263 -31 95 -3 170 -8 168 -11 -3 -3
-56 -8 -118 -13 -105 -7 -102 -7 42 -4 88 3 148 0 140 -4 -98 -56 -546 -43
-685 18 -45 20 -105 67 -105 83 0 12 64 4 138 -16z"/>
<path d="M3530 3086 c0 -2 8 -10 18 -17 15 -13 16 -12 3 4 -13 16 -21 21 -21
13z"/>
<path d="M3859 2985 c-40 -47 -77 -85 -81 -85 -5 0 -7 -4 -3 -9 3 -6 -3 -14
-12 -20 -11 -6 -13 -11 -5 -11 18 0 109 86 142 135 25 38 43 75 36 75 -2 0
-36 -38 -77 -85z"/>
<path d="M3597 3029 c31 -44 134 -169 139 -169 3 0 -15 26 -39 58 -50 64 -129
151 -100 111z"/>
<path d="M4212 2790 c0 -14 2 -19 5 -12 2 6 2 18 0 25 -3 6 -5 1 -5 -13z"/>
<path d="M3731 1674 c0 -11 3 -14 6 -6 3 7 2 16 -1 19 -3 4 -6 -2 -5 -13z"/>
<path d="M3740 1644 c0 -17 27 -37 42 -31 8 4 7 6 -4 6 -9 1 -22 9 -27 19 -6
9 -11 12 -11 6z"/>
<path d="M3178 1283 c7 -3 16 -2 19 1 4 3 -2 6 -13 5 -11 0 -14 -3 -6 -6z"/>
<path d="M3060 1264 l-65 -13 56 5 c32 3 70 9 85 14 44 13 -1 10 -76 -6z"/>
<path d="M2955 1240 c-3 -6 1 -7 9 -4 18 7 21 14 7 14 -6 0 -13 -4 -16 -10z"/>
<path d="M3334 1124 c-18 -14 -18 -15 4 -4 12 6 22 13 22 15 0 8 -5 6 -26 -11z"/>
</g>
</svg>